<?xml version="1.0" encoding="UTF-8"?>
<svg width="900" height="600" viewBox="0 0 900 600" fill="none" xmlns="http://www.w3.org/2000/svg">
  <!-- Background -->
  <rect width="900" height="600" fill="#f8f9fa" />
  
  <!-- Central Circle -->
  <circle cx="450" cy="300" r="200" fill="#f1f5f9" stroke="#e2e8f0" stroke-width="2"/>
  
  <!-- User Icons -->
  <!-- Main User -->
  <circle cx="450" cy="240" r="40" fill="#0ea5e9"/>
  <circle cx="450" cy="210" r="20" fill="#f8fafc"/>
  <path d="M410 290 Q450 320 490 290" stroke="#f8fafc" stroke-width="8" stroke-linecap="round"/>
  
  <!-- Satellite Users -->
  <!-- User 1 -->
  <circle cx="350" cy="300" r="30" fill="#64748b"/>
  <circle cx="350" cy="280" r="15" fill="#f8fafc"/>
  <path d="M320 335 Q350 360 380 335" stroke="#f8fafc" stroke-width="6" stroke-linecap="round"/>
  
  <!-- User 2 -->
  <circle cx="550" cy="300" r="30" fill="#64748b"/>
  <circle cx="550" cy="280" r="15" fill="#f8fafc"/>
  <path d="M520 335 Q550 360 580 335" stroke="#f8fafc" stroke-width="6" stroke-linecap="round"/>
  
  <!-- User 3 -->
  <circle cx="450" cy="400" r="30" fill="#64748b"/>
  <circle cx="450" cy="380" r="15" fill="#f8fafc"/>
  <path d="M420 435 Q450 460 480 435" stroke="#f8fafc" stroke-width="6" stroke-linecap="round"/>
  
  <!-- Connecting Lines -->
  <line x1="450" y1="280" x2="350" y2="300" stroke="#94a3b8" stroke-width="2" stroke-dasharray="4"/>
  <line x1="450" y1="280" x2="550" y2="300" stroke="#94a3b8" stroke-width="2" stroke-dasharray="4"/>
  <line x1="450" y1="280" x2="450" y2="400" stroke="#94a3b8" stroke-width="2" stroke-dasharray="4"/>
  
  <!-- Lock Icons -->
  <!-- Lock 1 -->
  <rect x="320" y="200" width="24" height="30" rx="4" fill="#0ea5e9"/>
  <rect x="325" y="190" width="14" height="16" rx="7" stroke="#0ea5e9" stroke-width="4" fill="none"/>
  
  <!-- Lock 2 -->
  <rect x="560" y="200" width="24" height="30" rx="4" fill="#0ea5e9"/>
  <rect x="565" y="190" width="14" height="16" rx="7" stroke="#0ea5e9" stroke-width="4" fill="none"/>
  
  <!-- Lock 3 -->
  <rect x="440" y="480" width="24" height="30" rx="4" fill="#0ea5e9"/>
  <rect x="445" y="470" width="14" height="16" rx="7" stroke="#0ea5e9" stroke-width="4" fill="none"/>
  
  <!-- Shield Icons -->
  <path d="M280 350 L300 330 L320 350 L300 370 Z" fill="#0ea5e9"/>
  <path d="M580 350 L600 330 L620 350 L600 370 Z" fill="#0ea5e9"/>
  <path d="M430 450 L450 430 L470 450 L450 470 Z" fill="#0ea5e9"/>
  
  <!-- Key Icons -->
  <!-- Key 1 -->
  <circle cx="300" cy="250" r="8" fill="#0ea5e9"/>
  <rect x="308" y="250" width="20" height="4" fill="#0ea5e9" transform="rotate(45 300 250)"/>
  
  <!-- Key 2 -->
  <circle cx="600" cy="250" r="8" fill="#0ea5e9"/>
  <rect x="608" y="250" width="20" height="4" fill="#0ea5e9" transform="rotate(-45 600 250)"/>
  
  <!-- Key 3 -->
  <circle cx="450" cy="500" r="8" fill="#0ea5e9"/>
  <rect x="458" y="500" width="20" height="4" fill="#0ea5e9"/>
  
  <!-- Decorative Circles -->
  <circle cx="250" cy="150" r="5" fill="#0ea5e9" opacity="0.5"/>
  <circle cx="650" cy="150" r="5" fill="#0ea5e9" opacity="0.5"/>
  <circle cx="250" cy="450" r="5" fill="#0ea5e9" opacity="0.5"/>
  <circle cx="650" cy="450" r="5" fill="#0ea5e9" opacity="0.5"/>
</svg> 