<?xml version="1.0" encoding="UTF-8"?>
<svg width="24" height="24" viewBox="0 0 24 24" fill="none" xmlns="http://www.w3.org/2000/svg">
    <!-- Main Background -->
    <rect width="24" height="24" fill="#f8f9fa"/>
    
    <!-- Central User Group -->
    <g>
        <!-- Central Large User -->
        <circle cx="12" cy="8" r="3.5" fill="#ffffff" stroke="#475569" stroke-width="1.5"/>
        <path d="M7 16.5C7 13.4624 9.46243 11 12.5 11H11.5C14.5376 11 17 13.4624 17 16.5V17.5C17 18.0523 16.5523 18.5 16 18.5H8C7.44772 18.5 7 18.0523 7 17.5V16.5Z" 
              fill="#ffffff" stroke="#475569" stroke-width="1.5"/>
              
        <!-- Left Small User -->
        <circle cx="6.5" cy="10" r="2" fill="#ffffff" stroke="#475569" stroke-width="1.5" opacity="0.9"/>
        <path d="M3 15.5C3 13.567 4.567 12 6.5 12C8.433 12 10 13.567 10 15.5V16H4V15.5Z" 
              fill="#ffffff" stroke="#475569" stroke-width="1.5" opacity="0.9"/>
              
        <!-- Right Small User -->
        <circle cx="17.5" cy="10" r="2" fill="#ffffff" stroke="#475569" stroke-width="1.5" opacity="0.9"/>
        <path d="M14 15.5C14 13.567 15.567 12 17.5 12C19.433 12 21 13.567 21 15.5V16H15V15.5Z" 
              fill="#ffffff" stroke="#475569" stroke-width="1.5" opacity="0.9"/>
    </g>
    
    <!-- Status Indicators -->
    <circle cx="6.5" cy="19.5" r="1" fill="#22c55e"/>
    <circle cx="12" cy="19.5" r="1" fill="#eab308"/>
    <circle cx="17.5" cy="19.5" r="1" fill="#ef4444"/>
    
    <!-- Management Dots -->
    <circle cx="20" cy="4" r="0.75" fill="#475569"/>
    <circle cx="20" cy="7" r="0.75" fill="#475569"/>
    <circle cx="20" cy="10" r="0.75" fill="#475569"/>
</svg> 